<svg xmlns="http://www.w3.org/2000/svg" xmlns:svg="http://www.w3.org/2000/svg" xmlns:xlink="http://www.w3.org/1999/xlink" id="svg2" width="48" height="48" version="1.1"><defs id="defs4"><linearGradient id="linearGradient4375"><stop id="stop4377" style="stop-color:#000;stop-opacity:1" offset="0"/><stop id="stop4379" style="stop-color:#000;stop-opacity:0" offset="1"/></linearGradient><linearGradient id="linearGradient3858"><stop id="stop3860" style="stop-color:#f0f0f0;stop-opacity:1" offset="0"/><stop id="stop3862" style="stop-color:#fff;stop-opacity:0" offset="1"/></linearGradient><linearGradient id="linearGradient4777"><stop id="stop4779" style="stop-color:#e24e20;stop-opacity:1" offset="0"/><stop id="stop4781" style="stop-color:#b30700;stop-opacity:1" offset="1"/></linearGradient><linearGradient id="linearGradient4767"><stop id="stop4769" style="stop-color:#940600;stop-opacity:1" offset="0"/><stop id="stop4771" style="stop-color:#940600;stop-opacity:0" offset="1"/></linearGradient><linearGradient id="linearGradient3988"><stop id="stop3990" style="stop-color:#f0f0f0;stop-opacity:1" offset="0"/><stop id="stop3992" style="stop-color:#f0f0f0;stop-opacity:0" offset="1"/></linearGradient><linearGradient id="linearGradient3688"><stop id="stop4775" style="stop-color:#bf4823;stop-opacity:1" offset="0"/><stop id="stop3692" style="stop-color:#610905;stop-opacity:1" offset="1"/></linearGradient><linearGradient id="linearGradient3680"><stop id="stop3682" style="stop-color:#ea5729;stop-opacity:.99607843" offset="0"/><stop id="stop3684" style="stop-color:#990600;stop-opacity:1" offset="1"/></linearGradient><linearGradient id="linearGradient3672"><stop id="stop3674" style="stop-color:#00f;stop-opacity:1" offset="0"/><stop id="stop3676" style="stop-color:#00f;stop-opacity:0" offset="1"/></linearGradient><linearGradient id="linearGradient3710" x1="175.893" x2="219.286" y1="521.291" y2="521.291" gradientTransform="matrix(0.99999993,0,0,1.0049745,1.8498509e-5,-2.4865711)" gradientUnits="userSpaceOnUse" xlink:href="#linearGradient3680"/><linearGradient id="linearGradient4188" x1="194.531" x2="194.531" y1="514.362" y2="521.516" gradientTransform="translate(0.3002593,0)" gradientUnits="userSpaceOnUse" xlink:href="#linearGradient3988"/><linearGradient id="linearGradient4191" x1="194.531" x2="194.531" y1="514.362" y2="521.516" gradientTransform="translate(-0.6995,0)" gradientUnits="userSpaceOnUse" xlink:href="#linearGradient3988"/><linearGradient id="linearGradient4773" x1="175.593" x2="219.586" y1="521.397" y2="521.397" gradientUnits="userSpaceOnUse" xlink:href="#linearGradient3688"/><linearGradient id="linearGradient4793" x1="175.593" x2="219.586" y1="521.397" y2="521.397" gradientUnits="userSpaceOnUse" xlink:href="#linearGradient3688"/><linearGradient id="linearGradient4797" x1="175.593" x2="219.586" y1="521.397" y2="521.397" gradientUnits="userSpaceOnUse" xlink:href="#linearGradient4777"/><filter id="filter4799" color-interpolation-filters="sRGB"><feGaussianBlur id="feGaussianBlur4801" stdDeviation=".691"/></filter><linearGradient id="linearGradient4804" x1="194.531" x2="194.531" y1="514.362" y2="521.516" gradientTransform="translate(0.3002593,0)" gradientUnits="userSpaceOnUse" xlink:href="#linearGradient3988"/><linearGradient id="linearGradient4807" x1="194.531" x2="194.531" y1="514.362" y2="521.516" gradientTransform="translate(-0.6995,0)" gradientUnits="userSpaceOnUse" xlink:href="#linearGradient3988"/><linearGradient id="linearGradient5011" x1="175.893" x2="219.286" y1="521.291" y2="521.291" gradientTransform="matrix(0.99999993,0,0,1.0049745,-45.608369,26.681584)" gradientUnits="userSpaceOnUse" xlink:href="#linearGradient3680"/><linearGradient id="linearGradient5013" x1="175.593" x2="219.586" y1="521.397" y2="521.397" gradientUnits="userSpaceOnUse" xlink:href="#linearGradient4777"/><linearGradient id="linearGradient5021" x1="175.893" x2="219.286" y1="521.291" y2="521.291" gradientTransform="matrix(0.99999993,0,0,1.0049745,-45.078039,32.338438)" gradientUnits="userSpaceOnUse" xlink:href="#linearGradient3680"/><linearGradient id="linearGradient5023" x1="175.593" x2="219.586" y1="521.397" y2="521.397" gradientUnits="userSpaceOnUse" xlink:href="#linearGradient4777"/><linearGradient id="linearGradient5025" x1="175.593" x2="219.586" y1="521.397" y2="521.397" gradientTransform="translate(-45.078057,34.825009)" gradientUnits="userSpaceOnUse" xlink:href="#linearGradient3688"/><linearGradient id="linearGradient5047" x1="175.893" x2="219.286" y1="521.291" y2="521.291" gradientTransform="matrix(0.99999993,0,0,1.0049745,1.8498509e-5,-2.4865711)" gradientUnits="userSpaceOnUse" xlink:href="#linearGradient3680"/><linearGradient id="linearGradient5049" x1="175.593" x2="219.586" y1="521.397" y2="521.397" gradientUnits="userSpaceOnUse" xlink:href="#linearGradient4777"/><linearGradient id="linearGradient5051" x1="175.593" x2="219.586" y1="521.397" y2="521.397" gradientUnits="userSpaceOnUse" xlink:href="#linearGradient3688"/><linearGradient id="linearGradient5053" x1="194.531" x2="194.531" y1="514.362" y2="521.516" gradientTransform="translate(-0.6995,0)" gradientUnits="userSpaceOnUse" xlink:href="#linearGradient3988"/><linearGradient id="linearGradient5055" x1="194.531" x2="194.531" y1="514.362" y2="521.516" gradientTransform="translate(0.3002593,0)" gradientUnits="userSpaceOnUse" xlink:href="#linearGradient3988"/><linearGradient id="linearGradient3655" x1="175.893" x2="219.286" y1="521.291" y2="521.291" gradientTransform="matrix(0.99999993,0,0,1.0049745,1.8498509e-5,-2.4865711)" gradientUnits="userSpaceOnUse" xlink:href="#linearGradient3680"/><linearGradient id="linearGradient3657" x1="175.593" x2="219.586" y1="521.397" y2="521.397" gradientUnits="userSpaceOnUse" xlink:href="#linearGradient4777"/><linearGradient id="linearGradient3659" x1="175.593" x2="219.586" y1="521.397" y2="521.397" gradientUnits="userSpaceOnUse" xlink:href="#linearGradient3688"/><linearGradient id="linearGradient3661" x1="194.531" x2="194.531" y1="514.362" y2="521.516" gradientTransform="translate(-0.6995,0)" gradientUnits="userSpaceOnUse" xlink:href="#linearGradient3988"/><linearGradient id="linearGradient3663" x1="194.531" x2="194.531" y1="514.362" y2="521.516" gradientTransform="translate(0.3002593,0)" gradientUnits="userSpaceOnUse" xlink:href="#linearGradient3988"/><linearGradient id="linearGradient3676" x1="175.593" x2="219.586" y1="521.397" y2="521.397" gradientTransform="translate(-173.59959,-496.58396)" gradientUnits="userSpaceOnUse" xlink:href="#linearGradient3688"/><linearGradient id="linearGradient3681" x1="175.593" x2="219.586" y1="521.397" y2="521.397" gradientTransform="translate(-173.59959,-496.58396)" gradientUnits="userSpaceOnUse" xlink:href="#linearGradient4777"/><linearGradient id="linearGradient3684" x1="175.893" x2="219.286" y1="521.291" y2="521.291" gradientTransform="matrix(0.99999993,0,0,1.0049745,-173.59957,-499.07053)" gradientUnits="userSpaceOnUse" xlink:href="#linearGradient3680"/><linearGradient id="linearGradient2886" x1="175.593" x2="219.586" y1="521.397" y2="521.397" gradientTransform="translate(-173.59959,-496.58396)" gradientUnits="userSpaceOnUse" xlink:href="#linearGradient3688"/><linearGradient id="linearGradient2890" x1="175.593" x2="219.586" y1="521.397" y2="521.397" gradientTransform="translate(-173.59959,-496.58396)" gradientUnits="userSpaceOnUse" xlink:href="#linearGradient4777"/><linearGradient id="linearGradient2893" x1="175.893" x2="219.286" y1="521.291" y2="521.291" gradientTransform="matrix(0.99999993,0,0,1.0049745,-173.59957,-499.07053)" gradientUnits="userSpaceOnUse" xlink:href="#linearGradient3680"/><linearGradient id="linearGradient3013" x1="175.593" x2="219.586" y1="521.397" y2="521.397" gradientTransform="matrix(3.2794389,0,0,3.2794389,-569.93703,-1734.1654)" gradientUnits="userSpaceOnUse" xlink:href="#linearGradient3688"/><linearGradient id="linearGradient3017" x1="175.593" x2="219.586" y1="521.397" y2="521.397" gradientTransform="matrix(3.2794389,0,0,3.2794389,-569.93703,-1734.1654)" gradientUnits="userSpaceOnUse" xlink:href="#linearGradient4777"/><linearGradient id="linearGradient3020" x1="175.893" x2="219.286" y1="521.291" y2="521.291" gradientTransform="matrix(3.2794386,0,0,3.2957524,-569.93696,-1742.32)" gradientUnits="userSpaceOnUse" xlink:href="#linearGradient3680"/><linearGradient id="linearGradient3795" x1="194.531" x2="194.531" y1="514.362" y2="521.516" gradientTransform="translate(-0.6995,0)" gradientUnits="userSpaceOnUse" xlink:href="#linearGradient3988"/><linearGradient id="linearGradient3797" x1="194.531" x2="194.531" y1="514.362" y2="521.516" gradientTransform="translate(0.3002593,0)" gradientUnits="userSpaceOnUse" xlink:href="#linearGradient3988"/><linearGradient id="linearGradient3817" x1="194.531" x2="194.531" y1="514.362" y2="521.516" gradientTransform="matrix(3.2794389,0,0,3.2794389,-575.67077,-1765.2781)" gradientUnits="userSpaceOnUse" xlink:href="#linearGradient3988"/><linearGradient id="linearGradient3820" x1="194.531" x2="194.531" y1="514.362" y2="521.516" gradientTransform="matrix(3.2794389,0,0,3.2794389,-578.94942,-1765.2781)" gradientUnits="userSpaceOnUse" xlink:href="#linearGradient3988"/><linearGradient id="linearGradient3864" x1="1.977" x2="1.977" y1="-46.576" y2="-29.075" gradientUnits="userSpaceOnUse" xlink:href="#linearGradient3858"/><linearGradient id="linearGradient3888" x1="1.977" x2="1.977" y1="-46.576" y2="-29.075" gradientUnits="userSpaceOnUse" xlink:href="#linearGradient3858"/><linearGradient id="linearGradient3890" x1="1.977" x2="1.977" y1="-46.576" y2="-29.075" gradientUnits="userSpaceOnUse" xlink:href="#linearGradient3858"/><linearGradient id="linearGradient3929" x1="175.593" x2="219.586" y1="521.397" y2="521.397" gradientTransform="matrix(3.2794389,0,0,3.2794389,-569.93703,-1734.1654)" gradientUnits="userSpaceOnUse" xlink:href="#linearGradient3688"/><linearGradient id="linearGradient3933" x1="175.593" x2="219.586" y1="521.397" y2="521.397" gradientTransform="matrix(3.2794389,0,0,3.2794389,-569.93703,-1734.1654)" gradientUnits="userSpaceOnUse" xlink:href="#linearGradient3688"/><linearGradient id="linearGradient3941" x1="175.593" x2="219.586" y1="521.397" y2="521.397" gradientTransform="matrix(3.2794389,0,0,3.2794389,-569.93703,-1734.1654)" gradientUnits="userSpaceOnUse" xlink:href="#linearGradient4777"/><linearGradient id="linearGradient3943" x1="1.977" x2="1.977" y1="-46.576" y2="-29.075" gradientUnits="userSpaceOnUse" xlink:href="#linearGradient3858"/><linearGradient id="linearGradient3945" x1="1.977" x2="1.977" y1="-46.576" y2="-29.075" gradientUnits="userSpaceOnUse" xlink:href="#linearGradient3858"/><linearGradient id="linearGradient3947" x1="1.977" x2="1.977" y1="-46.576" y2="-29.075" gradientUnits="userSpaceOnUse" xlink:href="#linearGradient3858"/><linearGradient id="linearGradient3966" x1="175.893" x2="219.286" y1="521.291" y2="521.291" gradientTransform="matrix(3.2794386,0,0,3.2957524,-569.93696,-1742.32)" gradientUnits="userSpaceOnUse" xlink:href="#linearGradient3680"/><linearGradient id="linearGradient3968" x1="175.593" x2="219.586" y1="521.397" y2="521.397" gradientTransform="matrix(3.2794389,0,0,3.2794389,-569.93703,-1734.1654)" gradientUnits="userSpaceOnUse" xlink:href="#linearGradient4777"/><linearGradient id="linearGradient3970" x1="175.593" x2="219.586" y1="521.397" y2="521.397" gradientTransform="matrix(3.2794389,0,0,3.2794389,-569.93703,-1734.1654)" gradientUnits="userSpaceOnUse" xlink:href="#linearGradient3688"/><linearGradient id="linearGradient3972" x1="1.977" x2="1.977" y1="-46.576" y2="-29.075" gradientUnits="userSpaceOnUse" xlink:href="#linearGradient3858"/><linearGradient id="linearGradient3974" x1="1.977" x2="1.977" y1="-46.576" y2="-29.075" gradientUnits="userSpaceOnUse" xlink:href="#linearGradient3858"/><linearGradient id="linearGradient3976" x1="1.977" x2="1.977" y1="-46.576" y2="-29.075" gradientUnits="userSpaceOnUse" xlink:href="#linearGradient3858"/><linearGradient id="linearGradient3066" x1="175.593" x2="219.586" y1="521.397" y2="521.397" gradientTransform="matrix(1.0145453,0,0,1.0145453,-176.46327,-504.98121)" gradientUnits="userSpaceOnUse" xlink:href="#linearGradient3688"/><linearGradient id="linearGradient3070" x1="175.593" x2="219.586" y1="521.397" y2="521.397" gradientTransform="matrix(1.0145453,0,0,1.0145453,-176.46387,-504.97918)" gradientUnits="userSpaceOnUse" xlink:href="#linearGradient4777"/><linearGradient id="linearGradient3073" x1="175.893" x2="219.286" y1="521.291" y2="521.291" gradientTransform="matrix(1.0145452,0,0,1.0195921,-176.46325,-507.50396)" gradientUnits="userSpaceOnUse" xlink:href="#linearGradient3680"/><linearGradient id="linearGradient3847" x1="1.977" x2="1.977" y1="-46.576" y2="-29.075" gradientUnits="userSpaceOnUse" xlink:href="#linearGradient3858"/><linearGradient id="linearGradient3849" x1="1.977" x2="1.977" y1="-46.576" y2="-29.075" gradientUnits="userSpaceOnUse" xlink:href="#linearGradient3858"/><linearGradient id="linearGradient3851" x1="1.977" x2="1.977" y1="-46.576" y2="-29.075" gradientUnits="userSpaceOnUse" xlink:href="#linearGradient3858"/><linearGradient id="linearGradient3881" x1="1.977" x2="1.977" y1="-46.576" y2="-29.075" gradientUnits="userSpaceOnUse" xlink:href="#linearGradient3858"/><linearGradient id="linearGradient3883" x1="1.977" x2="1.977" y1="-46.576" y2="-29.075" gradientUnits="userSpaceOnUse" xlink:href="#linearGradient3858"/><linearGradient id="linearGradient3885" x1="1.977" x2="1.977" y1="-46.576" y2="-29.075" gradientUnits="userSpaceOnUse" xlink:href="#linearGradient3858"/><linearGradient id="linearGradient3889" x1="95.393" x2="94.108" y1="-18.338" y2="-28.195" gradientTransform="matrix(0.30936551,0,0,0.30936551,-0.14439295,31.39939)" gradientUnits="userSpaceOnUse" xlink:href="#linearGradient3858"/><linearGradient id="linearGradient3892" x1="1.977" x2="1.977" y1="-46.576" y2="-29.075" gradientTransform="matrix(0.30936551,0,0,0.30936551,-0.14439295,31.39939)" gradientUnits="userSpaceOnUse" xlink:href="#linearGradient3858"/><linearGradient id="linearGradient3896" x1="48.894" x2="41.823" y1="-3.982" y2="3.733" gradientTransform="matrix(0.30936551,0,0,0.30936551,-0.14439295,31.39939)" gradientUnits="userSpaceOnUse" xlink:href="#linearGradient3858"/><linearGradient id="linearGradient3934" x1="17.236" x2="18.562" y1="14.987" y2="24" gradientUnits="userSpaceOnUse" xlink:href="#linearGradient3988"/><linearGradient id="linearGradient3080" x1="17.236" x2="18.562" y1="14.987" y2="24" gradientUnits="userSpaceOnUse" xlink:href="#linearGradient3988"/><linearGradient id="linearGradient3082" x1="17.236" x2="18.562" y1="14.987" y2="24" gradientUnits="userSpaceOnUse" xlink:href="#linearGradient3988"/><linearGradient id="linearGradient3096" x1="175.593" x2="219.586" y1="521.397" y2="521.397" gradientTransform="matrix(1.0145453,0,0,1.0145453,-176.46327,-504.98121)" gradientUnits="userSpaceOnUse" xlink:href="#linearGradient3688"/><linearGradient id="linearGradient3100" x1="175.593" x2="219.586" y1="521.397" y2="521.397" gradientTransform="matrix(1.0145453,0,0,1.0145453,-176.46387,-504.97918)" gradientUnits="userSpaceOnUse" xlink:href="#linearGradient4777"/><linearGradient id="linearGradient3103" x1="175.893" x2="219.286" y1="521.291" y2="521.291" gradientTransform="matrix(1.0145452,0,0,1.0195921,-176.46325,-507.50396)" gradientUnits="userSpaceOnUse" xlink:href="#linearGradient3680"/><linearGradient id="linearGradient3915" x1="17.236" x2="18.562" y1="14.987" y2="24" gradientUnits="userSpaceOnUse" xlink:href="#linearGradient3988"/><linearGradient id="linearGradient3930" x1="175.593" x2="219.586" y1="521.397" y2="521.397" gradientTransform="matrix(1.0145453,0,0,1.0145453,-176.46327,-504.98121)" gradientUnits="userSpaceOnUse" xlink:href="#linearGradient3688"/><linearGradient id="linearGradient3935" x1="175.593" x2="219.586" y1="521.397" y2="521.397" gradientTransform="matrix(1.0145453,0,0,1.0145453,-176.46387,-504.97918)" gradientUnits="userSpaceOnUse" xlink:href="#linearGradient4777"/><linearGradient id="linearGradient3938" x1="175.893" x2="219.286" y1="521.291" y2="521.291" gradientTransform="matrix(1.0145452,0,0,1.0195921,-176.46325,-507.50396)" gradientUnits="userSpaceOnUse" xlink:href="#linearGradient3680"/><linearGradient id="linearGradient3110" x1="175.593" x2="219.586" y1="521.397" y2="521.397" gradientTransform="matrix(1.0145453,0,0,1.0145453,-176.46327,-504.98121)" gradientUnits="userSpaceOnUse" xlink:href="#linearGradient3688"/><linearGradient id="linearGradient3114" x1="175.593" x2="219.586" y1="521.397" y2="521.397" gradientTransform="matrix(1.0145453,0,0,1.0145453,-176.46387,-504.97918)" gradientUnits="userSpaceOnUse" xlink:href="#linearGradient4777"/><linearGradient id="linearGradient3117" x1="175.893" x2="219.286" y1="521.291" y2="521.291" gradientTransform="matrix(1.0145452,0,0,1.0195921,-176.46325,-507.50396)" gradientUnits="userSpaceOnUse" xlink:href="#linearGradient3680"/><linearGradient id="linearGradient4281" x1="17.236" x2="18.562" y1="14.987" y2="24" gradientUnits="userSpaceOnUse" xlink:href="#linearGradient3988"/><linearGradient id="linearGradient4295" x1="175.593" x2="219.586" y1="521.397" y2="521.397" gradientTransform="matrix(1.0145453,0,0,1.0145453,-176.46327,-504.98121)" gradientUnits="userSpaceOnUse" xlink:href="#linearGradient3688"/><linearGradient id="linearGradient4299" x1="175.593" x2="219.586" y1="521.397" y2="521.397" gradientTransform="matrix(1.0145453,0,0,1.0145453,-176.46387,-504.97918)" gradientUnits="userSpaceOnUse" xlink:href="#linearGradient4777"/><linearGradient id="linearGradient4302" x1="175.893" x2="219.286" y1="521.291" y2="521.291" gradientTransform="matrix(1.0145452,0,0,1.0195921,-176.46325,-507.50396)" gradientUnits="userSpaceOnUse" xlink:href="#linearGradient3680"/><linearGradient id="linearGradient4304" x1="17.236" x2="18.562" y1="14.987" y2="24" gradientUnits="userSpaceOnUse" xlink:href="#linearGradient3988"/><linearGradient id="linearGradient4306" x1="17.236" x2="18.562" y1="14.987" y2="24" gradientUnits="userSpaceOnUse" xlink:href="#linearGradient3988"/><linearGradient id="linearGradient4308" x1="17.236" x2="18.562" y1="14.987" y2="24" gradientUnits="userSpaceOnUse" xlink:href="#linearGradient3988"/><filter id="filter4332" color-interpolation-filters="sRGB"><feGaussianBlur id="feGaussianBlur4334" stdDeviation=".667"/></filter><linearGradient id="linearGradient4348" x1="17.236" x2="18.562" y1="14.987" y2="24" gradientUnits="userSpaceOnUse" xlink:href="#linearGradient3988"/><linearGradient id="linearGradient4350" x1="17.236" x2="18.562" y1="14.987" y2="24" gradientUnits="userSpaceOnUse" xlink:href="#linearGradient3988"/><linearGradient id="linearGradient4352" x1="17.236" x2="18.562" y1="14.987" y2="24" gradientUnits="userSpaceOnUse" xlink:href="#linearGradient3988"/><linearGradient id="linearGradient4355" x1="17.236" x2="18.562" y1="14.987" y2="24" gradientUnits="userSpaceOnUse" xlink:href="#linearGradient3988"/><linearGradient id="linearGradient4358" x1="17.236" x2="18.562" y1="14.987" y2="24" gradientUnits="userSpaceOnUse" xlink:href="#linearGradient3988"/><linearGradient id="linearGradient4381" x1="1.063" x2="3.563" y1="37.653" y2="37.653" gradientUnits="userSpaceOnUse" xlink:href="#linearGradient4375"/><linearGradient id="linearGradient4385" x1="1.063" x2="3.563" y1="37.653" y2="37.653" gradientTransform="translate(0,-27.305233)" gradientUnits="userSpaceOnUse" xlink:href="#linearGradient4375"/><linearGradient id="linearGradient4389" x1="1.063" x2="3.563" y1="37.653" y2="37.653" gradientTransform="translate(-48,0)" gradientUnits="userSpaceOnUse" xlink:href="#linearGradient4375"/><linearGradient id="linearGradient4393" x1="1.063" x2="3.563" y1="37.653" y2="37.653" gradientTransform="translate(-48,-27.305233)" gradientUnits="userSpaceOnUse" xlink:href="#linearGradient4375"/><linearGradient id="linearGradient4439" x1="175.893" x2="219.286" y1="521.291" y2="521.291" gradientTransform="matrix(1.0145452,0,0,1.0195921,-176.46325,-507.50396)" gradientUnits="userSpaceOnUse" xlink:href="#linearGradient3680"/><linearGradient id="linearGradient4441" x1="175.593" x2="219.586" y1="521.397" y2="521.397" gradientTransform="matrix(1.0145453,0,0,1.0145453,-176.46387,-504.97918)" gradientUnits="userSpaceOnUse" xlink:href="#linearGradient4777"/><linearGradient id="linearGradient4443" x1="175.593" x2="219.586" y1="521.397" y2="521.397" gradientTransform="matrix(1.0145453,0,0,1.0145453,-176.46327,-504.98121)" gradientUnits="userSpaceOnUse" xlink:href="#linearGradient3688"/><linearGradient id="linearGradient4445" x1="17.236" x2="18.562" y1="14.987" y2="24" gradientUnits="userSpaceOnUse" xlink:href="#linearGradient3988"/><linearGradient id="linearGradient4447" x1="17.236" x2="18.562" y1="14.987" y2="24" gradientUnits="userSpaceOnUse" xlink:href="#linearGradient3988"/><linearGradient id="linearGradient4449" x1="1.063" x2="3.563" y1="37.653" y2="37.653" gradientUnits="userSpaceOnUse" xlink:href="#linearGradient4375"/><linearGradient id="linearGradient4451" x1="1.063" x2="3.563" y1="37.653" y2="37.653" gradientTransform="translate(0,-27.305233)" gradientUnits="userSpaceOnUse" xlink:href="#linearGradient4375"/><linearGradient id="linearGradient4453" x1="1.063" x2="3.563" y1="37.653" y2="37.653" gradientTransform="translate(-48,0)" gradientUnits="userSpaceOnUse" xlink:href="#linearGradient4375"/><linearGradient id="linearGradient4455" x1="1.063" x2="3.563" y1="37.653" y2="37.653" gradientTransform="translate(-48,-27.305233)" gradientUnits="userSpaceOnUse" xlink:href="#linearGradient4375"/><linearGradient id="linearGradient3311" x1="175.593" x2="219.586" y1="521.397" y2="521.397" gradientTransform="matrix(1.018204,0,0,1.018204,-177.18618,-506.88882)" gradientUnits="userSpaceOnUse" xlink:href="#linearGradient3688"/><linearGradient id="linearGradient3315" x1="175.593" x2="219.586" y1="521.397" y2="521.397" gradientTransform="matrix(1.018204,0,0,1.018204,-177.18678,-506.88678)" gradientUnits="userSpaceOnUse" xlink:href="#linearGradient4777"/><linearGradient id="linearGradient3318" x1="175.893" x2="219.286" y1="521.291" y2="521.291" gradientTransform="matrix(1.0182039,0,0,1.023269,-177.18616,-509.42067)" gradientUnits="userSpaceOnUse" xlink:href="#linearGradient3680"/><linearGradient id="linearGradient3329" x1="1.063" x2="3.563" y1="37.653" y2="37.653" gradientTransform="matrix(0.79999998,0,0,0.9968722,-47.870215,-27.257974)" gradientUnits="userSpaceOnUse" xlink:href="#linearGradient4375"/><linearGradient id="linearGradient3332" x1="1.063" x2="3.563" y1="37.653" y2="37.653" gradientTransform="matrix(0.79999998,0,0,0.9968722,-47.870215,0.18828737)" gradientUnits="userSpaceOnUse" xlink:href="#linearGradient4375"/><linearGradient id="linearGradient3335" x1="1.063" x2="3.563" y1="37.653" y2="37.653" gradientTransform="matrix(0.8,0,0,0.9968721,0.12978282,-27.257973)" gradientUnits="userSpaceOnUse" xlink:href="#linearGradient4375"/><linearGradient id="linearGradient3338" x1="1.063" x2="3.563" y1="37.653" y2="37.653" gradientTransform="matrix(0.79999998,0,0,0.9968722,0.12978283,0.18828737)" gradientUnits="userSpaceOnUse" xlink:href="#linearGradient4375"/><linearGradient id="linearGradient4152" x1="1.063" x2="3.563" y1="37.653" y2="37.653" gradientTransform="matrix(0.79999998,0,0,0.9968722,-47.870215,-27.257974)" gradientUnits="userSpaceOnUse" xlink:href="#linearGradient4375"/><linearGradient id="linearGradient4155" x1="1.063" x2="3.563" y1="37.653" y2="37.653" gradientTransform="matrix(0.79999998,0,0,0.9968722,-47.870215,0.18828737)" gradientUnits="userSpaceOnUse" xlink:href="#linearGradient4375"/><linearGradient id="linearGradient4158" x1="1.063" x2="3.563" y1="37.653" y2="37.653" gradientTransform="matrix(0.8,0,0,0.9968721,0.12978282,-27.257973)" gradientUnits="userSpaceOnUse" xlink:href="#linearGradient4375"/><linearGradient id="linearGradient4161" x1="1.063" x2="3.563" y1="37.653" y2="37.653" gradientTransform="matrix(0.79999998,0,0,0.9968722,0.12978283,0.18828737)" gradientUnits="userSpaceOnUse" xlink:href="#linearGradient4375"/></defs><g id="g4163"><rect id="rect2898" width="44.183" height="43.854" x="1.909" y="2.073" rx="5.091" style="fill:url(#linearGradient3318);fill-opacity:1;fill-rule:evenodd;stroke:none"/><path id="path3939" d="m 6.9963061,2.6738271 c -2.4950535,0 -4.4825716,1.9958318 -4.4825716,4.4922741 l 0,33.6677988 c 0,2.496443 1.9875181,4.492274 4.4825716,4.492274 l 34.0073869,0 c 2.495056,0 4.482572,-1.995831 4.482572,-4.492274 l 0,-33.6677988 c 0,-2.4964423 -1.987516,-4.4922741 -4.482572,-4.4922741 l -34.0073869,0 z" style="fill:none;stroke:url(#linearGradient3315);stroke-width:.65201038;stroke-miterlimit:4;stroke-opacity:1;stroke-dasharray:none"/><path id="path3687" d="m 6.9924963,2.1746313 c -2.9713635,0 -5.3773894,2.4060261 -5.3773894,5.3773893 l 0,26.1551144 C 15.143605,23.569377 32.032421,21.005448 46.38426,25.847873 l 0,-18.2958524 c 0,-2.9713632 -2.406026,-5.3773893 -5.377387,-5.3773893 l -34.0143767,0 z" style="opacity:.21000001;fill:#fff;fill-opacity:1;stroke:none"/><rect id="rect4723" width="44.183" height="43.854" x="1.909" y="2.073" rx="5.091" style="fill:none;stroke:url(#linearGradient3311);stroke-width:.62096226;stroke-miterlimit:4;stroke-opacity:1;stroke-dasharray:none"/><g id="g4408" transform="matrix(1.0036062,0,0,1.0036062,-0.0865488,-0.08654784)"><path id="path3844" d="m 1.6875,6.71875 0,7.1875 2.65625,0 c 5.5685284,0 10.0625,4.52368 10.0625,10.09375 0,5.57007 -4.49243,10.09375 -10.0625,10.09375 l -2.65625,0 0,7.1875 2.65625,0 c 9.539092,0 17.3125,-7.74087 17.3125,-17.28125 0,-9.54038 -7.772441,-17.28125 -17.3125,-17.28125 l -2.65625,0 z" style="opacity:.3;fill:#000;fill-opacity:1;stroke:none;filter:url(#filter4332)"/><path id="path3842" d="m 43.65625,6.71875 c -9.539406,0 -17.3125,7.741525 -17.3125,17.28125 0,9.539725 7.774059,17.28125 17.3125,17.28125 l 2.65625,0 0,-7.1875 -2.65625,0 c -5.570723,0 -10.0625,-4.523028 -10.0625,-10.09375 0,-5.570722 4.493314,-10.09375 10.0625,-10.09375 l 2.65625,0 0,-7.1875 -2.65625,0 z" style="opacity:.3;fill:#000;fill-opacity:1;stroke:none;filter:url(#filter4332)"/></g><g id="g4395" transform="matrix(1.0036062,0,0,1.0036062,-0.0865488,-0.08654784)"><path id="path3830" d="m 1.0625,7.1875 0,6.28125 c 0.4147035,-2.64e-4 1.4223161,0 3.28125,0 5.820302,0 10.53125,4.710947 10.53125,10.53125 0,5.820302 -4.710948,10.53125 -10.53125,10.53125 l -3.28125,0 0,6.28125 c 0.4371972,-7.91e-4 1.5176216,0 3.28125,0 9.288853,0 16.84375,-7.523647 16.84375,-16.8125 0,-9.288853 -7.554897,-16.8125 -16.84375,-16.8125 -1.7856759,0 -2.8492564,2.659e-4 -3.28125,0 z" style="fill:#d3d3d3;fill-opacity:1;stroke:none"/><path id="path3832" d="M 43.65625,7.1875 C 34.367395,7.1875 26.8125,14.711147 26.8125,24 c 0,9.288853 7.554895,16.8125 16.84375,16.8125 1.763627,0 2.844052,-7.91e-4 3.28125,0 l 0,-6.28125 -3.28125,0 C 37.835946,34.53125 33.125,29.820302 33.125,24 c 0,-5.820303 4.710946,-10.53125 10.53125,-10.53125 1.858934,0 2.866546,-2.64e-4 3.28125,0 l 0,-6.28125 c -0.431994,2.659e-4 -1.495573,0 -3.28125,0 z" style="fill:#d3d3d3;fill-opacity:1;stroke:none"/></g><g id="g4403" transform="matrix(1.0036062,0,0,1.0036062,-0.0865488,-0.08654784)"><g id="g4399"><path id="path3894" d="m 1.0625,7.1875 0,6.28125 c 0.4147035,-2.64e-4 1.4223161,0 3.28125,0 5.820302,0 10.53125,4.710947 10.53125,10.53125 0,5.820302 -4.710948,10.53125 -10.53125,10.53125 l -3.28125,0 0,6.28125 c 0.4371972,-7.91e-4 1.5176216,0 3.28125,0 9.288853,0 16.84375,-7.523647 16.84375,-16.8125 0,-9.288853 -7.554897,-16.8125 -16.84375,-16.8125 -1.7856759,0 -2.8492564,2.659e-4 -3.28125,0 z" style="fill:url(#linearGradient4445);fill-opacity:1;stroke:none"/><path id="path3828" d="M 43.65625,7.1875 C 34.367395,7.1875 26.8125,14.711147 26.8125,24 c 0,9.288853 7.554895,16.8125 16.84375,16.8125 1.763627,0 2.844052,-7.91e-4 3.28125,0 l 0,-6.28125 -3.28125,0 C 37.835946,34.53125 33.125,29.820302 33.125,24 c 0,-5.820303 4.710946,-10.53125 10.53125,-10.53125 1.858934,0 2.866546,-2.64e-4 3.28125,0 l 0,-6.28125 c -0.431994,2.659e-4 -1.495573,0 -3.28125,0 z" style="fill:url(#linearGradient4447);fill-opacity:1;stroke:none"/></g></g><rect id="rect4373" width="2" height="6.3" x=".98" y="34.573" style="opacity:.22000002;fill:url(#linearGradient4161);fill-opacity:1;stroke:none"/><rect id="rect4383" width="2" height="6.3" x=".98" y="7.127" style="opacity:.22000002;fill:url(#linearGradient4158);fill-opacity:1;stroke:none"/><rect id="rect4387" width="2" height="6.3" x="-47.02" y="34.573" transform="scale(-1,1)" style="opacity:.22000002;fill:url(#linearGradient4155);fill-opacity:1;stroke:none"/><rect id="rect4391" width="2" height="6.3" x="-47.02" y="7.127" transform="scale(-1,1)" style="opacity:.22000002;fill:url(#linearGradient4152);fill-opacity:1;stroke:none"/></g></svg>