<svg xmlns="http://www.w3.org/2000/svg" xmlns:svg="http://www.w3.org/2000/svg" xmlns:xlink="http://www.w3.org/1999/xlink" id="svg2" width="48" height="48" version="1.1"><defs id="defs4"><linearGradient id="linearGradient3858"><stop id="stop3860" style="stop-color:#f0f0f0;stop-opacity:1" offset="0"/><stop id="stop3862" style="stop-color:#fff;stop-opacity:0" offset="1"/></linearGradient><linearGradient id="linearGradient4777"><stop id="stop4779" style="stop-color:#e24e20;stop-opacity:1" offset="0"/><stop id="stop4781" style="stop-color:#b30700;stop-opacity:1" offset="1"/></linearGradient><linearGradient id="linearGradient4767"><stop id="stop4769" style="stop-color:#940600;stop-opacity:1" offset="0"/><stop id="stop4771" style="stop-color:#940600;stop-opacity:0" offset="1"/></linearGradient><linearGradient id="linearGradient3988"><stop id="stop3990" style="stop-color:#f0f0f0;stop-opacity:1" offset="0"/><stop id="stop3992" style="stop-color:#f0f0f0;stop-opacity:0" offset="1"/></linearGradient><linearGradient id="linearGradient3688"><stop id="stop4775" style="stop-color:#bf4823;stop-opacity:1" offset="0"/><stop id="stop3692" style="stop-color:#610905;stop-opacity:1" offset="1"/></linearGradient><linearGradient id="linearGradient3680"><stop id="stop3682" style="stop-color:#ea5729;stop-opacity:.99607843" offset="0"/><stop id="stop3684" style="stop-color:#990600;stop-opacity:1" offset="1"/></linearGradient><linearGradient id="linearGradient3672"><stop id="stop3674" style="stop-color:#00f;stop-opacity:1" offset="0"/><stop id="stop3676" style="stop-color:#00f;stop-opacity:0" offset="1"/></linearGradient><linearGradient id="linearGradient3710" x1="175.893" x2="219.286" y1="521.291" y2="521.291" gradientTransform="matrix(0.99999993,0,0,1.0049745,1.8498509e-5,-2.4865711)" gradientUnits="userSpaceOnUse" xlink:href="#linearGradient3680"/><linearGradient id="linearGradient4188" x1="194.531" x2="194.531" y1="514.362" y2="521.516" gradientTransform="translate(0.3002593,0)" gradientUnits="userSpaceOnUse" xlink:href="#linearGradient3988"/><linearGradient id="linearGradient4191" x1="194.531" x2="194.531" y1="514.362" y2="521.516" gradientTransform="translate(-0.6995,0)" gradientUnits="userSpaceOnUse" xlink:href="#linearGradient3988"/><linearGradient id="linearGradient4773" x1="175.593" x2="219.586" y1="521.397" y2="521.397" gradientUnits="userSpaceOnUse" xlink:href="#linearGradient3688"/><linearGradient id="linearGradient4793" x1="175.593" x2="219.586" y1="521.397" y2="521.397" gradientUnits="userSpaceOnUse" xlink:href="#linearGradient3688"/><linearGradient id="linearGradient4797" x1="175.593" x2="219.586" y1="521.397" y2="521.397" gradientUnits="userSpaceOnUse" xlink:href="#linearGradient4777"/><filter id="filter4799" color-interpolation-filters="sRGB"><feGaussianBlur id="feGaussianBlur4801" stdDeviation=".691"/></filter><linearGradient id="linearGradient4804" x1="194.531" x2="194.531" y1="514.362" y2="521.516" gradientTransform="translate(0.3002593,0)" gradientUnits="userSpaceOnUse" xlink:href="#linearGradient3988"/><linearGradient id="linearGradient4807" x1="194.531" x2="194.531" y1="514.362" y2="521.516" gradientTransform="translate(-0.6995,0)" gradientUnits="userSpaceOnUse" xlink:href="#linearGradient3988"/><linearGradient id="linearGradient5011" x1="175.893" x2="219.286" y1="521.291" y2="521.291" gradientTransform="matrix(0.99999993,0,0,1.0049745,-45.608369,26.681584)" gradientUnits="userSpaceOnUse" xlink:href="#linearGradient3680"/><linearGradient id="linearGradient5013" x1="175.593" x2="219.586" y1="521.397" y2="521.397" gradientUnits="userSpaceOnUse" xlink:href="#linearGradient4777"/><linearGradient id="linearGradient5021" x1="175.893" x2="219.286" y1="521.291" y2="521.291" gradientTransform="matrix(0.99999993,0,0,1.0049745,-45.078039,32.338438)" gradientUnits="userSpaceOnUse" xlink:href="#linearGradient3680"/><linearGradient id="linearGradient5023" x1="175.593" x2="219.586" y1="521.397" y2="521.397" gradientUnits="userSpaceOnUse" xlink:href="#linearGradient4777"/><linearGradient id="linearGradient5025" x1="175.593" x2="219.586" y1="521.397" y2="521.397" gradientTransform="translate(-45.078057,34.825009)" gradientUnits="userSpaceOnUse" xlink:href="#linearGradient3688"/><linearGradient id="linearGradient5047" x1="175.893" x2="219.286" y1="521.291" y2="521.291" gradientTransform="matrix(0.99999993,0,0,1.0049745,1.8498509e-5,-2.4865711)" gradientUnits="userSpaceOnUse" xlink:href="#linearGradient3680"/><linearGradient id="linearGradient5049" x1="175.593" x2="219.586" y1="521.397" y2="521.397" gradientUnits="userSpaceOnUse" xlink:href="#linearGradient4777"/><linearGradient id="linearGradient5051" x1="175.593" x2="219.586" y1="521.397" y2="521.397" gradientUnits="userSpaceOnUse" xlink:href="#linearGradient3688"/><linearGradient id="linearGradient5053" x1="194.531" x2="194.531" y1="514.362" y2="521.516" gradientTransform="translate(-0.6995,0)" gradientUnits="userSpaceOnUse" xlink:href="#linearGradient3988"/><linearGradient id="linearGradient5055" x1="194.531" x2="194.531" y1="514.362" y2="521.516" gradientTransform="translate(0.3002593,0)" gradientUnits="userSpaceOnUse" xlink:href="#linearGradient3988"/><linearGradient id="linearGradient3655" x1="175.893" x2="219.286" y1="521.291" y2="521.291" gradientTransform="matrix(0.99999993,0,0,1.0049745,1.8498509e-5,-2.4865711)" gradientUnits="userSpaceOnUse" xlink:href="#linearGradient3680"/><linearGradient id="linearGradient3657" x1="175.593" x2="219.586" y1="521.397" y2="521.397" gradientUnits="userSpaceOnUse" xlink:href="#linearGradient4777"/><linearGradient id="linearGradient3659" x1="175.593" x2="219.586" y1="521.397" y2="521.397" gradientUnits="userSpaceOnUse" xlink:href="#linearGradient3688"/><linearGradient id="linearGradient3661" x1="194.531" x2="194.531" y1="514.362" y2="521.516" gradientTransform="translate(-0.6995,0)" gradientUnits="userSpaceOnUse" xlink:href="#linearGradient3988"/><linearGradient id="linearGradient3663" x1="194.531" x2="194.531" y1="514.362" y2="521.516" gradientTransform="translate(0.3002593,0)" gradientUnits="userSpaceOnUse" xlink:href="#linearGradient3988"/><linearGradient id="linearGradient3676" x1="175.593" x2="219.586" y1="521.397" y2="521.397" gradientTransform="translate(-173.59959,-496.58396)" gradientUnits="userSpaceOnUse" xlink:href="#linearGradient3688"/><linearGradient id="linearGradient3681" x1="175.593" x2="219.586" y1="521.397" y2="521.397" gradientTransform="translate(-173.59959,-496.58396)" gradientUnits="userSpaceOnUse" xlink:href="#linearGradient4777"/><linearGradient id="linearGradient3684" x1="175.893" x2="219.286" y1="521.291" y2="521.291" gradientTransform="matrix(0.99999993,0,0,1.0049745,-173.59957,-499.07053)" gradientUnits="userSpaceOnUse" xlink:href="#linearGradient3680"/><linearGradient id="linearGradient2886" x1="175.593" x2="219.586" y1="521.397" y2="521.397" gradientTransform="translate(-173.59959,-496.58396)" gradientUnits="userSpaceOnUse" xlink:href="#linearGradient3688"/><linearGradient id="linearGradient2890" x1="175.593" x2="219.586" y1="521.397" y2="521.397" gradientTransform="translate(-173.59959,-496.58396)" gradientUnits="userSpaceOnUse" xlink:href="#linearGradient4777"/><linearGradient id="linearGradient2893" x1="175.893" x2="219.286" y1="521.291" y2="521.291" gradientTransform="matrix(0.99999993,0,0,1.0049745,-173.59957,-499.07053)" gradientUnits="userSpaceOnUse" xlink:href="#linearGradient3680"/><linearGradient id="linearGradient3013" x1="175.593" x2="219.586" y1="521.397" y2="521.397" gradientTransform="matrix(3.2794389,0,0,3.2794389,-569.93703,-1734.1654)" gradientUnits="userSpaceOnUse" xlink:href="#linearGradient3688"/><linearGradient id="linearGradient3017" x1="175.593" x2="219.586" y1="521.397" y2="521.397" gradientTransform="matrix(3.2794389,0,0,3.2794389,-569.93703,-1734.1654)" gradientUnits="userSpaceOnUse" xlink:href="#linearGradient4777"/><linearGradient id="linearGradient3020" x1="175.893" x2="219.286" y1="521.291" y2="521.291" gradientTransform="matrix(3.2794386,0,0,3.2957524,-569.93696,-1742.32)" gradientUnits="userSpaceOnUse" xlink:href="#linearGradient3680"/><linearGradient id="linearGradient3795" x1="194.531" x2="194.531" y1="514.362" y2="521.516" gradientTransform="translate(-0.6995,0)" gradientUnits="userSpaceOnUse" xlink:href="#linearGradient3988"/><linearGradient id="linearGradient3797" x1="194.531" x2="194.531" y1="514.362" y2="521.516" gradientTransform="translate(0.3002593,0)" gradientUnits="userSpaceOnUse" xlink:href="#linearGradient3988"/><linearGradient id="linearGradient3817" x1="194.531" x2="194.531" y1="514.362" y2="521.516" gradientTransform="matrix(3.2794389,0,0,3.2794389,-575.67077,-1765.2781)" gradientUnits="userSpaceOnUse" xlink:href="#linearGradient3988"/><linearGradient id="linearGradient3820" x1="194.531" x2="194.531" y1="514.362" y2="521.516" gradientTransform="matrix(3.2794389,0,0,3.2794389,-578.94942,-1765.2781)" gradientUnits="userSpaceOnUse" xlink:href="#linearGradient3988"/><linearGradient id="linearGradient3864" x1="1.977" x2="1.977" y1="-46.576" y2="-29.075" gradientUnits="userSpaceOnUse" xlink:href="#linearGradient3858"/><linearGradient id="linearGradient3888" x1="1.977" x2="1.977" y1="-46.576" y2="-29.075" gradientUnits="userSpaceOnUse" xlink:href="#linearGradient3858"/><linearGradient id="linearGradient3890" x1="1.977" x2="1.977" y1="-46.576" y2="-29.075" gradientUnits="userSpaceOnUse" xlink:href="#linearGradient3858"/><linearGradient id="linearGradient3929" x1="175.593" x2="219.586" y1="521.397" y2="521.397" gradientTransform="matrix(3.2794389,0,0,3.2794389,-569.93703,-1734.1654)" gradientUnits="userSpaceOnUse" xlink:href="#linearGradient3688"/><linearGradient id="linearGradient3933" x1="175.593" x2="219.586" y1="521.397" y2="521.397" gradientTransform="matrix(3.2794389,0,0,3.2794389,-569.93703,-1734.1654)" gradientUnits="userSpaceOnUse" xlink:href="#linearGradient3688"/><linearGradient id="linearGradient3941" x1="175.593" x2="219.586" y1="521.397" y2="521.397" gradientTransform="matrix(3.2794389,0,0,3.2794389,-569.93703,-1734.1654)" gradientUnits="userSpaceOnUse" xlink:href="#linearGradient4777"/><linearGradient id="linearGradient3943" x1="1.977" x2="1.977" y1="-46.576" y2="-29.075" gradientUnits="userSpaceOnUse" xlink:href="#linearGradient3858"/><linearGradient id="linearGradient3945" x1="1.977" x2="1.977" y1="-46.576" y2="-29.075" gradientUnits="userSpaceOnUse" xlink:href="#linearGradient3858"/><linearGradient id="linearGradient3947" x1="1.977" x2="1.977" y1="-46.576" y2="-29.075" gradientUnits="userSpaceOnUse" xlink:href="#linearGradient3858"/><linearGradient id="linearGradient3966" x1="175.893" x2="219.286" y1="521.291" y2="521.291" gradientTransform="matrix(3.2794386,0,0,3.2957524,-569.93696,-1742.32)" gradientUnits="userSpaceOnUse" xlink:href="#linearGradient3680"/><linearGradient id="linearGradient3968" x1="175.593" x2="219.586" y1="521.397" y2="521.397" gradientTransform="matrix(3.2794389,0,0,3.2794389,-569.93703,-1734.1654)" gradientUnits="userSpaceOnUse" xlink:href="#linearGradient4777"/><linearGradient id="linearGradient3970" x1="175.593" x2="219.586" y1="521.397" y2="521.397" gradientTransform="matrix(3.2794389,0,0,3.2794389,-569.93703,-1734.1654)" gradientUnits="userSpaceOnUse" xlink:href="#linearGradient3688"/><linearGradient id="linearGradient3972" x1="1.977" x2="1.977" y1="-46.576" y2="-29.075" gradientUnits="userSpaceOnUse" xlink:href="#linearGradient3858"/><linearGradient id="linearGradient3974" x1="1.977" x2="1.977" y1="-46.576" y2="-29.075" gradientUnits="userSpaceOnUse" xlink:href="#linearGradient3858"/><linearGradient id="linearGradient3976" x1="1.977" x2="1.977" y1="-46.576" y2="-29.075" gradientUnits="userSpaceOnUse" xlink:href="#linearGradient3858"/><linearGradient id="linearGradient3066" x1="175.593" x2="219.586" y1="521.397" y2="521.397" gradientTransform="matrix(1.0145453,0,0,1.0145453,-176.46327,-504.98121)" gradientUnits="userSpaceOnUse" xlink:href="#linearGradient3688"/><linearGradient id="linearGradient3070" x1="175.593" x2="219.586" y1="521.397" y2="521.397" gradientTransform="matrix(1.0145453,0,0,1.0145453,-176.46387,-504.97918)" gradientUnits="userSpaceOnUse" xlink:href="#linearGradient4777"/><linearGradient id="linearGradient3073" x1="175.893" x2="219.286" y1="521.291" y2="521.291" gradientTransform="matrix(1.0145452,0,0,1.0195921,-176.46325,-507.50396)" gradientUnits="userSpaceOnUse" xlink:href="#linearGradient3680"/><linearGradient id="linearGradient3847" x1="1.977" x2="1.977" y1="-46.576" y2="-29.075" gradientUnits="userSpaceOnUse" xlink:href="#linearGradient3858"/><linearGradient id="linearGradient3849" x1="1.977" x2="1.977" y1="-46.576" y2="-29.075" gradientUnits="userSpaceOnUse" xlink:href="#linearGradient3858"/><linearGradient id="linearGradient3851" x1="1.977" x2="1.977" y1="-46.576" y2="-29.075" gradientUnits="userSpaceOnUse" xlink:href="#linearGradient3858"/><linearGradient id="linearGradient3881" x1="1.977" x2="1.977" y1="-46.576" y2="-29.075" gradientUnits="userSpaceOnUse" xlink:href="#linearGradient3858"/><linearGradient id="linearGradient3883" x1="1.977" x2="1.977" y1="-46.576" y2="-29.075" gradientUnits="userSpaceOnUse" xlink:href="#linearGradient3858"/><linearGradient id="linearGradient3885" x1="1.977" x2="1.977" y1="-46.576" y2="-29.075" gradientUnits="userSpaceOnUse" xlink:href="#linearGradient3858"/><linearGradient id="linearGradient3889" x1="95.393" x2="94.108" y1="-18.338" y2="-28.195" gradientTransform="matrix(0.30936551,0,0,0.30936551,-0.14439295,31.39939)" gradientUnits="userSpaceOnUse" xlink:href="#linearGradient3858"/><linearGradient id="linearGradient3892" x1="1.977" x2="1.977" y1="-46.576" y2="-29.075" gradientTransform="matrix(0.30936551,0,0,0.30936551,-0.14439295,31.39939)" gradientUnits="userSpaceOnUse" xlink:href="#linearGradient3858"/><linearGradient id="linearGradient3896" x1="48.894" x2="41.823" y1="-3.982" y2="3.733" gradientTransform="matrix(0.30936551,0,0,0.30936551,-0.14439295,31.39939)" gradientUnits="userSpaceOnUse" xlink:href="#linearGradient3858"/><linearGradient id="linearGradient3934" x1="17.236" x2="18.562" y1="14.987" y2="24" gradientUnits="userSpaceOnUse" xlink:href="#linearGradient3988"/><linearGradient id="linearGradient3080" x1="17.236" x2="18.562" y1="14.987" y2="24" gradientUnits="userSpaceOnUse" xlink:href="#linearGradient3988"/><linearGradient id="linearGradient3082" x1="17.236" x2="18.562" y1="14.987" y2="24" gradientUnits="userSpaceOnUse" xlink:href="#linearGradient3988"/><linearGradient id="linearGradient3096" x1="175.593" x2="219.586" y1="521.397" y2="521.397" gradientTransform="matrix(1.0145453,0,0,1.0145453,-176.46327,-504.98121)" gradientUnits="userSpaceOnUse" xlink:href="#linearGradient3688"/><linearGradient id="linearGradient3100" x1="175.593" x2="219.586" y1="521.397" y2="521.397" gradientTransform="matrix(1.0145453,0,0,1.0145453,-176.46387,-504.97918)" gradientUnits="userSpaceOnUse" xlink:href="#linearGradient4777"/><linearGradient id="linearGradient3103" x1="175.893" x2="219.286" y1="521.291" y2="521.291" gradientTransform="matrix(1.0145452,0,0,1.0195921,-176.46325,-507.50396)" gradientUnits="userSpaceOnUse" xlink:href="#linearGradient3680"/><linearGradient id="linearGradient3915" x1="17.236" x2="18.562" y1="14.987" y2="24" gradientUnits="userSpaceOnUse" xlink:href="#linearGradient3988"/><linearGradient id="linearGradient3930" x1="175.593" x2="219.586" y1="521.397" y2="521.397" gradientTransform="matrix(1.0145453,0,0,1.0145453,-176.46327,-504.98121)" gradientUnits="userSpaceOnUse" xlink:href="#linearGradient3688"/><linearGradient id="linearGradient3935" x1="175.593" x2="219.586" y1="521.397" y2="521.397" gradientTransform="matrix(1.0145453,0,0,1.0145453,-176.46387,-504.97918)" gradientUnits="userSpaceOnUse" xlink:href="#linearGradient4777"/><linearGradient id="linearGradient3938" x1="175.893" x2="219.286" y1="521.291" y2="521.291" gradientTransform="matrix(1.0145452,0,0,1.0195921,-176.46325,-507.50396)" gradientUnits="userSpaceOnUse" xlink:href="#linearGradient3680"/><linearGradient id="linearGradient3110" x1="175.593" x2="219.586" y1="521.397" y2="521.397" gradientTransform="matrix(1.0145453,0,0,1.0145453,-176.46327,-504.98121)" gradientUnits="userSpaceOnUse" xlink:href="#linearGradient3688"/><linearGradient id="linearGradient3114" x1="175.593" x2="219.586" y1="521.397" y2="521.397" gradientTransform="matrix(1.0145453,0,0,1.0145453,-176.46387,-504.97918)" gradientUnits="userSpaceOnUse" xlink:href="#linearGradient4777"/><linearGradient id="linearGradient3117" x1="175.893" x2="219.286" y1="521.291" y2="521.291" gradientTransform="matrix(1.0145452,0,0,1.0195921,-176.46325,-507.50396)" gradientUnits="userSpaceOnUse" xlink:href="#linearGradient3680"/></defs><g id="g3891"><rect id="rect2898" width="44.024" height="43.697" x="1.988" y="2.152" rx="5.073" style="fill:url(#linearGradient3117);fill-opacity:1;fill-rule:evenodd;stroke:none"/><path id="path3939" d="m 7.0574045,2.7504562 c -2.4860882,0 -4.4664646,1.9886603 -4.4664646,4.4761323 l 0,33.5468225 c 0,2.487472 1.9803764,4.476132 4.4664646,4.476132 l 33.8851905,0 c 2.48609,0 4.466465,-1.98866 4.466465,-4.476132 l 0,-33.5468225 c 0,-2.487472 -1.980375,-4.4761323 -4.466465,-4.4761323 l -33.8851905,0 z" style="fill:none;stroke:url(#linearGradient3114);stroke-width:.64966756;stroke-miterlimit:4;stroke-opacity:1;stroke-dasharray:none"/><path id="path3687" d="m 7.0536084,2.2530542 c -2.9606867,0 -5.3580672,2.3973806 -5.3580672,5.358067 l 0,26.0611328 C 15.175428,23.570923 32.003559,21.016207 46.303828,25.841232 l 0,-18.2301108 c 0,-2.9606864 -2.397381,-5.358067 -5.358065,-5.358067 l -33.8921546,0 z" style="opacity:.21000001;fill:#fff;fill-opacity:1;stroke:none"/><rect id="rect4723" width="44.024" height="43.697" x="1.988" y="2.152" rx="5.073" style="fill:none;stroke:url(#linearGradient3110);stroke-width:.61873102;stroke-miterlimit:4;stroke-opacity:1;stroke-dasharray:none"/><g id="g3936"><g id="g3911" transform="matrix(0.30936551,0,0,0.30936551,-0.14500871,31.400917)"><path id="path3844" d="m 1.8125,-79.78125 a 1.50015,1.50015 0 0 0 -1.34375,1.5 l 0,20.28125 a 1.50015,1.50015 0 0 0 1.5,1.5 l 12.5625,0 c 17.999836,0 32.53125,14.620182 32.53125,32.625 0,18.0048185 -14.526431,32.53125 -32.53125,32.53125 l -12.5625,0 a 1.50015,1.50015 0 0 0 -1.5,1.5 l 0,20.28125 a 1.50015,1.50015 0 0 0 1.5,1.5 l 12.5625,0 c 30.834376,0 55.9375,-24.9739611 55.9375,-55.8125 0,-30.838538 -25.100001,-55.90625 -55.9375,-55.90625 l -12.5625,0 a 1.50015,1.50015 0 0 0 -0.15625,0 z" style="fill:#e5e5e5;fill-opacity:1;stroke:none"/><path id="path3842" d="m 141.5625,-79.78125 c -30.83539,0 -55.9375,25.069829 -55.9375,55.90625 0,30.8364215 25.10523,55.8125 55.9375,55.8125 l 12.5625,0 a 1.4962434,1.4962434 0 0 0 1.5,-1.5 l 0,-20.28125 a 1.4962434,1.4962434 0 0 0 -1.5,-1.5 l -12.5625,0 c -18.00693,0 -32.53125,-14.5243249 -32.53125,-32.53125 0,-18.006925 14.52929,-32.625 32.53125,-32.625 l 12.5625,0 a 1.4962434,1.4962434 0 0 0 1.5,-1.5 l 0,-20.28125 a 1.4962434,1.4962434 0 0 0 -1.5,-1.5 l -12.5625,0 z" style="fill:#e5e5e5;fill-opacity:1;stroke:none"/></g><g id="g3895" transform="matrix(0.30936551,0,0,0.30936551,-0.14439295,31.39939)"><path id="path3830" d="m 14.53125,-78.28125 c -6.8165266,0 -12.5546875,-0.0039 -12.5546875,-0.0039 0,0 0,20.28907 0,20.28907 0,0 5.4585105,-0.0039 12.5546875,-0.0039 18.813676,0 34.03125,15.311325 34.03125,34.125 0,18.8136755 -15.217574,34.03125 -34.03125,34.03125 -7.096177,0 -12.5546875,0 -12.5546875,0 l 0,20.292969 c 0,0 5.8223236,-0.01172 12.5546875,-0.01172 30.025497,0 54.4375,-24.2870035 54.4375,-54.3125 0,-30.025496 -24.412003,-54.40625 -54.4375,-54.40625 z" style="fill:#d3d3d3;fill-opacity:1;stroke:none"/><g id="g3892"><path id="path3832" d="m 141.5585,-78.28125 c 6.81653,0 12.55469,-0.0039 12.55469,-0.0039 0,0 0,20.28907 0,20.28907 0,0 -5.45851,-0.0039 -12.55469,-0.0039 -18.81368,0 -34.03125,15.311325 -34.03125,34.125 0,18.8136755 15.21757,34.03125 34.03125,34.03125 7.09618,0 12.55469,0 12.55469,0 l 0,20.292969 c 0,0 -5.82233,-0.01172 -12.55469,-0.01172 -30.0255,0 -54.4375,-24.2870035 -54.4375,-54.3125 0,-30.025496 24.412,-54.40625 54.4375,-54.40625 z" style="fill:#d3d3d3;fill-opacity:1;stroke:none"/></g></g><g id="g3898" style="fill:url(#linearGradient3915);fill-opacity:1"><path id="path3828" d="m 43.648925,7.1818712 c 2.108799,0 3.883988,-0.00121 3.883988,-0.00121 0,0 0,6.2767388 0,6.2767388 0,0 -1.688675,-0.0012 -3.883988,-0.0012 -5.820304,0 -10.528095,4.736795 -10.528095,10.557098 0,5.820302 4.707791,10.528095 10.528095,10.528095 2.195313,0 3.883988,0 3.883988,0 l 0,6.277944 c 0,0 -1.801228,-0.0036 -3.883988,-0.0036 -9.288855,0 -16.841085,-7.513562 -16.841085,-16.802415 0,-9.288853 7.55223,-16.8314174 16.841085,-16.8314174 z" style="fill:url(#linearGradient3080);fill-opacity:1;stroke:none"/><path id="path3894" d="m 4.3510746,7.1818712 c -2.1087982,0 -3.88398728,-0.00121 -3.88398728,-0.00121 0,0 0,6.2767388 0,6.2767388 0,0 1.68867488,-0.0012 3.88398728,-0.0012 5.8203024,0 10.5280954,4.736795 10.5280954,10.557098 0,5.820302 -4.707793,10.528095 -10.5280954,10.528095 -2.1953124,0 -3.88398728,0 -3.88398728,0 l 0,6.277944 c 0,0 1.80122608,-0.0036 3.88398728,-0.0036 9.2888534,0 16.8410854,-7.513562 16.8410854,-16.802415 0,-9.288853 -7.552232,-16.8314174 -16.8410854,-16.8314174 z" style="fill:url(#linearGradient3082);fill-opacity:1;stroke:none"/></g></g></g></svg>